<svg width="37" height="28" viewBox="0 0 37 28" fill="none" xmlns="http://www.w3.org/2000/svg">
<path id="Vector" d="M32.7892 0.459348C32.3936 0.204521 31.9412 0.0503564 31.4718 0.0104048C31.0024 -0.0295468 30.5303 0.0459384 30.097 0.230225L15.8999 5.79793C15.5638 5.93414 15.2043 6.00417 14.8414 6.00414H5.75249C4.98966 6.00414 4.25808 6.30588 3.71868 6.843C3.17928 7.38011 2.87624 8.10859 2.87624 8.86818V9.09731H0V15.971H2.87624V16.2689C2.89427 17.0165 3.20524 17.7274 3.7427 18.2498C4.28016 18.7721 5.00147 19.0644 5.75249 19.0642L9.20398 26.3503C9.43769 26.841 9.80564 27.256 10.2656 27.5478C10.7255 27.8396 11.2588 27.9964 11.8041 28H13.2537C14.0126 27.994 14.7383 27.6895 15.2727 27.1531C15.8071 26.6166 16.107 25.8916 16.107 25.136V19.3391L30.097 24.9068C30.4411 25.0432 30.8081 25.1132 31.1785 25.113C31.7531 25.1038 32.3126 24.9287 32.7892 24.609C33.1676 24.3545 33.4798 24.014 33.6999 23.6156C33.92 23.2171 34.0416 22.7723 34.0547 22.3177V2.81932C34.0526 2.35309 33.9362 1.89442 33.7157 1.48315C33.4951 1.07188 33.1771 0.720435 32.7892 0.459348ZM13.2307 8.86818V16.2689H5.75249V8.86818H13.2307ZM13.2307 25.136H11.7811L8.95087 19.0642H13.2307V25.136ZM16.9583 16.6126C16.6851 16.4735 16.4003 16.3585 16.107 16.2689V8.7078C16.3975 8.64811 16.6823 8.5638 16.9583 8.45576L31.1785 2.81932V22.249L16.9583 16.6126ZM34.1238 9.67011V15.3982C34.8866 15.3982 35.6182 15.0965 36.1576 14.5593C36.697 14.0222 37 13.2938 37 12.5342C37 11.7746 36.697 11.0461 36.1576 10.509C35.6182 9.97186 34.8866 9.67011 34.1238 9.67011Z" fill="#303841"/>
</svg>
