<svg width="52" height="17" viewBox="0 0 52 17" fill="none" xmlns="http://www.w3.org/2000/svg">
<path d="M39.3262 15.3089C39.2281 15.7136 39.1421 16.0317 39.0561 16.3704H37.0422V0.696289H39.3918V6.47855C39.5148 6.3216 39.5759 6.25552 39.6288 6.18531C40.0302 5.62774 40.5501 5.26428 41.2216 5.12385C42.29 4.91321 43.2023 5.38818 43.5259 6.42486C43.7343 7.06914 43.8693 7.75893 43.8859 8.43213C43.919 10.1627 43.8942 11.8891 43.833 13.6197C43.8082 14.1483 43.6489 14.6894 43.4482 15.185C42.7888 16.8205 40.6361 17.0683 39.5677 15.6517C39.502 15.565 39.4409 15.47 39.3262 15.3089ZM39.4409 10.997V13.8633C39.4409 14.33 39.6862 14.615 40.1487 14.7224C40.6036 14.8298 40.9718 14.6522 41.1559 14.2268C41.2337 14.0492 41.3114 13.8633 41.3152 13.6775C41.3604 11.9262 41.4012 10.175 41.414 8.41972C41.414 8.09347 41.3362 7.75475 41.2375 7.43673C41.0534 6.86266 40.5462 6.69333 40.0468 7.02787C39.6702 7.28392 39.4409 7.64739 39.4409 8.13063V10.997ZM33.0554 5.34689H35.5155V16.3786H33.5958C33.5262 15.9615 33.4566 15.5319 33.3747 15.028C33.2437 15.2222 33.166 15.3461 33.0841 15.47C32.4456 16.3993 31.541 16.7173 30.4727 16.5479C29.5599 16.3993 29.0114 15.6889 28.8886 14.5242C28.8518 14.1772 28.8354 13.8262 28.8354 13.4792C28.8272 10.8979 28.8354 8.30825 28.8354 5.72686V5.33862H31.324V5.78881C31.324 8.28344 31.3159 10.7739 31.3322 13.2686C31.3322 13.6238 31.369 13.9914 31.4305 14.3465C31.5 14.71 31.762 14.8422 32.114 14.8174C32.683 14.772 33.0759 14.3465 33.0759 13.7766V5.83425C33.0554 5.67317 33.0554 5.52448 33.0554 5.34689ZM16.1178 5.33862H18.5902V5.80533C18.5902 8.28755 18.5819 10.7657 18.5983 13.2397C18.5983 13.5949 18.6311 13.9624 18.7048 14.3094C18.7989 14.7183 19.0363 14.8504 19.4415 14.7967C20.0023 14.7183 20.3421 14.3259 20.3461 13.7518V5.85076V5.35514H22.8061V16.3786H20.8946C20.825 15.9698 20.7555 15.5484 20.6654 15.0156C20.5426 15.2015 20.473 15.3089 20.4034 15.4204C19.7649 16.3662 18.8685 16.7132 17.7756 16.5438C16.8997 16.4117 16.3634 15.7591 16.1997 14.6894C16.1547 14.3548 16.122 14.0244 16.122 13.6899C16.1138 11.0093 16.1138 8.31648 16.1138 5.636L16.1178 5.33862ZM14.849 11.2283C14.8408 11.6 14.8163 11.9717 14.7957 12.3434C14.7016 13.4586 14.6566 15.0404 13.7643 15.8541C13.1954 16.3662 12.4749 16.5521 11.73 16.5769C11.3984 16.5851 11.0628 16.5851 10.7313 16.5397C9.16355 16.3001 8.43496 15.6022 8.17299 13.8633C7.87419 11.8561 7.84967 9.81575 8.20574 7.80849C8.57411 5.73099 9.84301 4.99581 11.8159 5.13211C13.6579 5.26428 14.4806 6.48267 14.6975 8.21735C14.8163 9.21275 14.8735 10.2205 14.849 11.2283ZM12.3439 10.8483C12.3439 10.142 12.3603 9.43164 12.3358 8.7254C12.3194 8.31648 12.2662 7.90344 12.1802 7.4987C12.082 7.03199 11.7873 6.80898 11.4189 6.81721C11.0587 6.8255 10.8049 7.04851 10.6739 7.48218C10.6289 7.64328 10.5798 7.80849 10.5798 7.96953C10.5798 9.07647 10.5716 10.1875 10.5634 11.2943C10.5552 12.3269 10.4242 13.409 10.7476 14.3961C10.8459 14.6976 11.0996 14.8628 11.4312 14.8628C11.7546 14.8628 11.9673 14.7018 12.0861 14.4126C12.1802 14.1896 12.2621 13.9459 12.2621 13.7064C12.2907 12.7564 12.3439 11.8024 12.3439 10.8483ZM4.56282 8.77079C4.77975 7.70107 4.98439 6.65617 5.20954 5.60708C5.49196 4.27303 5.80713 2.93898 6.08548 1.6008C6.15505 1.27451 6.28604 1.19604 6.59306 1.2043C7.25201 1.22908 7.92331 1.21256 8.62737 1.21256C8.39814 2.06338 8.17299 2.8729 7.95198 3.67002C7.25201 6.17292 6.55209 8.68407 5.86033 11.1953C5.80713 11.3893 5.7826 11.6 5.7826 11.8065C5.77439 13.1777 5.7826 14.5448 5.7826 15.916V16.3621H3.37986C3.3717 16.2382 3.35533 16.1143 3.35533 15.9904C3.35533 15.2139 3.29391 14.4333 3.36348 13.6651C3.53951 11.8189 2.95829 10.1214 2.4876 8.4032C1.86542 6.13162 1.23507 3.85175 0.612883 1.58015C0.580136 1.47276 0.567839 1.35712 0.535156 1.22496H2.98696C3.50269 3.73198 4.0225 6.239 4.56282 8.77079ZM51.5731 11.6496H47.4307C47.4759 12.488 47.4919 13.2851 47.5779 14.074C47.6397 14.6233 47.9385 14.8587 48.4087 14.8628C48.8999 14.8711 49.1866 14.6233 49.3012 14.0781C49.3382 13.9005 49.3624 13.7229 49.3789 13.5412C49.3955 13.3801 49.4038 13.2066 49.4159 12.9753C50.1161 13.0125 50.7997 13.0538 51.475 13.0828C51.8675 14.2598 51.1596 15.7715 49.9683 16.2382C49.0311 16.6099 48.0691 16.6099 47.1115 16.3249C46.4031 16.1143 45.8756 15.66 45.6379 14.962C45.4168 14.3094 45.2079 13.6279 45.1633 12.9464C45.0403 11.2655 44.9951 9.56793 45.2493 7.88281C45.2939 7.60194 45.3716 7.33349 45.4576 7.06092C45.8017 5.9375 46.5509 5.24776 47.7091 5.13211C48.3392 5.07016 48.9903 5.09494 49.6121 5.20233C50.6194 5.37992 51.1558 6.11097 51.389 7.06914C51.4954 7.51934 51.5731 7.98194 51.5897 8.44042C51.5935 9.49362 51.5731 10.5385 51.5731 11.6496ZM49.2197 10.1999C49.2197 9.36967 49.2273 8.58905 49.2114 7.80432C49.2114 7.61847 49.142 7.42439 49.0719 7.24677C48.933 6.89982 48.6425 6.80487 48.2946 6.80487C47.9468 6.80487 47.7257 6.98242 47.6397 7.30044C47.3772 8.25451 47.4632 9.22927 47.4715 10.2081C48.0977 10.1999 48.6667 10.1999 49.2197 10.1999Z" fill="#011032" fill-opacity="0.56"/>
</svg>
